<svg xmlns="http://www.w3.org/2000/svg" xmlns:xlink="http://www.w3.org/1999/xlink" width="222" height="124.62" viewBox="0 0 222 124.62"><defs><clipPath id="a"><rect x="15" y="15.06" width="192" height="94.32" style="fill:none"/></clipPath></defs><title>mcitp.svg</title><path d="M15.36,95.85h1.57v13.3H15.36Zm13,1.41H24.5v11.89H22.93V97.26H19.07V95.85h9.28M41.43,99.9c0-1.76-1-2.64-3.13-2.64H36.46v5.45H38.1a3.73,3.73,0,0,0,2.48-.73,2.56,2.56,0,0,0,.85-2.08m1.64-.08a4,4,0,0,1-1.33,3.11,5.12,5.12,0,0,1-3.51,1.18H36.46v5H34.9V95.85h3.67a4.9,4.9,0,0,1,3.33,1,3.75,3.75,0,0,1,1.18,2.93m7.29,1.37a1.94,1.94,0,0,0-1.17-.3,1.92,1.92,0,0,0-1.65,1,4.37,4.37,0,0,0-.63,2.47v4.84H45.39v-9.5h1.53v2h0a3.37,3.37,0,0,1,1-1.55,2.25,2.25,0,0,1,1.52-.57,2.44,2.44,0,0,1,.91.13m8.52,4.8a4.16,4.16,0,0,0-.79-2.74,2.82,2.82,0,0,0-2.28-1,2.94,2.94,0,0,0-2.34,1,4.05,4.05,0,0,0-.85,2.76,3.8,3.8,0,0,0,.86,2.66,2.93,2.93,0,0,0,2.32,1,2.82,2.82,0,0,0,2.29-.94,4.12,4.12,0,0,0,.79-2.72m1.57-.06A5.13,5.13,0,0,1,59.17,108a4.56,4.56,0,0,1-3.47,1.37A4.4,4.4,0,0,1,52.32,108a4.94,4.94,0,0,1-1.26-3.53,5.2,5.2,0,0,1,1.29-3.72,4.67,4.67,0,0,1,3.57-1.37,4.27,4.27,0,0,1,3.33,1.32,5.14,5.14,0,0,1,1.21,3.62m6.74-7.94a2.14,2.14,0,0,0-1-.25c-1.07,0-1.6.67-1.6,2v1.46h2.24v1.29H64.58v8.21H63.05v-8.21H61.43V99.65h1.62V98.11a3.22,3.22,0,0,1,.86-2.33,2.87,2.87,0,0,1,2.18-.89,3,3,0,0,1,1.11.16m7.3,8.44a3.19,3.19,0,0,0-.64-2,2.17,2.17,0,0,0-1.75-.73,2.45,2.45,0,0,0-1.82.76,3.51,3.51,0,0,0-1,2Zm1.56,1.29H69.32a3.59,3.59,0,0,0,.85,2.46,3,3,0,0,0,2.27.85,4.7,4.7,0,0,0,3-1v1.42a5.49,5.49,0,0,1-3.32.92,4,4,0,0,1-3.19-1.32,5.34,5.34,0,0,1-1.14-3.63,5.74,5.74,0,0,1,.57-2.57,4.37,4.37,0,0,1,1.58-1.81,4.15,4.15,0,0,1,2.24-.64,3.61,3.61,0,0,1,2.89,1.2,5,5,0,0,1,1,3.37m7.45,2.62a2.45,2.45,0,0,1-1,2,4,4,0,0,1-2.54.77,4.68,4.68,0,0,1-2.37-.58v-1.63a3.84,3.84,0,0,0,2.48.91c1.21,0,1.82-.44,1.82-1.33a1.16,1.16,0,0,0-.36-.88A6.69,6.69,0,0,0,80,105a4.8,4.8,0,0,1-1.79-1.15,2.65,2.65,0,0,1,.43-3.61A3.62,3.62,0,0,1,81,99.42a4.74,4.74,0,0,1,2,.44v1.53a3.63,3.63,0,0,0-2.17-.67,1.84,1.84,0,0,0-1.21.37,1.16,1.16,0,0,0-.46,1,1.26,1.26,0,0,0,.35,1,5.17,5.17,0,0,0,1.46.81A5.29,5.29,0,0,1,83,105a2.36,2.36,0,0,1,.55,1.59m7.45,0a2.46,2.46,0,0,1-1,2,4,4,0,0,1-2.54.77,4.68,4.68,0,0,1-2.37-.58v-1.63a3.9,3.9,0,0,0,2.48.91c1.21,0,1.82-.44,1.82-1.33a1.16,1.16,0,0,0-.36-.88,6.69,6.69,0,0,0-1.61-.91,4.68,4.68,0,0,1-1.79-1.16,2.42,2.42,0,0,1-.52-1.63,2.44,2.44,0,0,1,.95-2,3.62,3.62,0,0,1,2.41-.79,4.74,4.74,0,0,1,2,.44v1.53a3.63,3.63,0,0,0-2.17-.67,1.89,1.89,0,0,0-1.22.37,1.18,1.18,0,0,0-.46,1,1.26,1.26,0,0,0,.36,1,5,5,0,0,0,1.46.81,5.23,5.23,0,0,1,1.91,1.2,2.31,2.31,0,0,1,.55,1.59m3.77,2.54H93.2v-9.5h1.53ZM95,96.25a.94.94,0,0,1-.3.71,1,1,0,0,1-1.41,0A1,1,0,0,1,94,95.26a1,1,0,0,1,.71.29.93.93,0,0,1,.29.7m9.94,8.17a4.16,4.16,0,0,0-.79-2.74,2.83,2.83,0,0,0-2.29-1,2.92,2.92,0,0,0-2.33,1,4.05,4.05,0,0,0-.86,2.76,3.81,3.81,0,0,0,.87,2.66,2.93,2.93,0,0,0,2.33,1,2.81,2.81,0,0,0,2.28-.94,4.12,4.12,0,0,0,.79-2.72m1.57-.06a5.13,5.13,0,0,1-1.29,3.65,4.56,4.56,0,0,1-3.47,1.37A4.4,4.4,0,0,1,98.36,108a4.94,4.94,0,0,1-1.26-3.53,5.16,5.16,0,0,1,1.3-3.72A4.68,4.68,0,0,1,102,99.42a4.27,4.27,0,0,1,3.33,1.32,5.19,5.19,0,0,1,1.2,3.62m10.3,4.79h-1.53v-5.41c0-2-.74-3-2.22-3a2.43,2.43,0,0,0-1.89.85,3.1,3.1,0,0,0-.76,2.16v5.42h-1.53v-9.5h1.53v1.58h0a3.42,3.42,0,0,1,3.13-1.81,2.91,2.91,0,0,1,2.4,1,4.48,4.48,0,0,1,.83,2.89m8.11,1-2.31.32a3.46,3.46,0,0,0-1.66.56,1.57,1.57,0,0,0-.48,1.28,1.41,1.41,0,0,0,.52,1.15,2,2,0,0,0,1.31.43,2.46,2.46,0,0,0,1.88-.8,2.84,2.84,0,0,0,.74-2v-.94Zm1.53,4.8h-1.53v-1.48h0a3.2,3.2,0,0,1-2.93,1.72,3.17,3.17,0,0,1-2.21-.75,2.55,2.55,0,0,1-.83-2q0-2.66,3.15-3.1l2.86-.4c0-1.6-.65-2.41-2-2.41a4.73,4.73,0,0,0-3.11,1.16v-1.56a4.82,4.82,0,0,1,1.44-.61,6.77,6.77,0,0,1,1.81-.29c2.24,0,3.36,1.19,3.36,3.55m2.88-7.88h1.53v14.06h-1.53ZM35.69,38.57,34.11,43H34a44,44,0,0,0-1.49-4.36L24.09,17.47H15.85V51.09h5.44V30.42c0-1.27,0-2.82-.08-4.58,0-.89-.13-1.61-.16-2.16h.12c.28,1.27.56,2.24.77,2.88L32.06,51.09h3.8l10-24.75a20.69,20.69,0,0,0,.69-2.66h.12c-.13,2.45-.24,4.69-.26,6V51.09h5.81V17.47H44.33M57.71,27h5.67v24.1H57.71ZM60.6,16.75a3.39,3.39,0,0,0-2.41.95,3.1,3.1,0,0,0-1,2.36,3.06,3.06,0,0,0,1,2.32,3.47,3.47,0,0,0,2.43.92A3.51,3.51,0,0,0,63,22.38a3,3,0,0,0,1-2.32,3.17,3.17,0,0,0-1-2.34,3.39,3.39,0,0,0-2.46-1m22.85,10a16.15,16.15,0,0,0-3.17-.34,14,14,0,0,0-6.89,1.66,11.13,11.13,0,0,0-4.55,4.67,14.87,14.87,0,0,0-1.57,6.93,12.75,12.75,0,0,0,1.52,6.21A10.68,10.68,0,0,0,73,50.16a12.58,12.58,0,0,0,6.19,1.5,13.68,13.68,0,0,0,6.84-1.59l.08,0V44.84l-.24.17a10.34,10.34,0,0,1-2.78,1.44,8.35,8.35,0,0,1-2.71.53,7,7,0,0,1-5.31-2.07,8,8,0,0,1-2-5.73,8.36,8.36,0,0,1,2-5.88,6.93,6.93,0,0,1,5.32-2.19A9.14,9.14,0,0,1,85.91,33l.24.18V27.68l-.08,0a9.56,9.56,0,0,0-2.63-.89m18.68-.18a5.79,5.79,0,0,0-3.78,1.36,7.66,7.66,0,0,0-2.19,3.24h-.06V27H90.42V51.08h5.67V38.76a8.63,8.63,0,0,1,1.41-5.11,4.33,4.33,0,0,1,3.67-1.94,6.54,6.54,0,0,1,1.71.25,4.15,4.15,0,0,1,1.32.54l.24.17V27l-.09,0a6,6,0,0,0-2.23-.34M122,45a5.73,5.73,0,0,1-4.76,2,6.11,6.11,0,0,1-4.89-2,8.7,8.7,0,0,1-1.75-5.79,9.08,9.08,0,0,1,1.75-6,6,6,0,0,1,4.84-2.09,5.91,5.91,0,0,1,4.71,2A8.86,8.86,0,0,1,123.65,39,9.49,9.49,0,0,1,122,45m-4.51-18.56c-4,0-7.13,1.17-9.38,3.46s-3.39,5.48-3.39,9.45a12.3,12.3,0,0,0,3.31,9,12,12,0,0,0,8.88,3.33,12.28,12.28,0,0,0,9.2-3.5,13,13,0,0,0,3.39-9.36c0-3.83-1.07-6.89-3.18-9.08s-5.08-3.32-8.83-3.32M142.1,37a12.18,12.18,0,0,1-3.4-1.77,2.44,2.44,0,0,1-.69-1.85,2,2,0,0,1,.87-1.72,3.92,3.92,0,0,1,2.45-.69,9.84,9.84,0,0,1,2.9.45,9.3,9.3,0,0,1,2.54,1.17l.24.16V27.46l-.09,0a12.46,12.46,0,0,0-2.58-.71,15.42,15.42,0,0,0-2.83-.3,10.36,10.36,0,0,0-6.65,2.06,6.53,6.53,0,0,0-2.59,5.34,7.49,7.49,0,0,0,.56,3A6,6,0,0,0,134.54,39,15,15,0,0,0,138,41a26.29,26.29,0,0,1,2.91,1.35,4.06,4.06,0,0,1,1.27,1,2.34,2.34,0,0,1,.36,1.37c0,1.62-1.21,2.41-3.71,2.41a10.31,10.31,0,0,1-3.14-.58A11.71,11.71,0,0,1,132.51,45l-.23-.17v5.52l.08,0a14,14,0,0,0,3,.94,16.24,16.24,0,0,0,3.24.38,11.07,11.07,0,0,0,7-2.06,6.67,6.67,0,0,0,2.62-5.47A6.34,6.34,0,0,0,146.88,40a12,12,0,0,0-4.78-3"/><g style="clip-path:url(#a)"><path d="M168,45a5.74,5.74,0,0,1-4.76,2,6.13,6.13,0,0,1-4.89-2.05,8.75,8.75,0,0,1-1.75-5.8,9.08,9.08,0,0,1,1.75-6,6,6,0,0,1,4.84-2.08,5.92,5.92,0,0,1,4.71,2,8.87,8.87,0,0,1,1.72,5.9A9.46,9.46,0,0,1,168,45m-4.51-18.56c-4,0-7.13,1.17-9.38,3.47s-3.39,5.47-3.39,9.45a12.29,12.29,0,0,0,3.31,9A12.06,12.06,0,0,0,163,51.67a12.27,12.27,0,0,0,9.2-3.5,13,13,0,0,0,3.39-9.36c0-3.83-1.07-6.89-3.18-9.08s-5.08-3.32-8.83-3.32m42.24,5.21V27H200V19.8l-.2.06-5.39,1.65-.11,0V27h-8.5V24a4.82,4.82,0,0,1,.93-3.21,3.31,3.31,0,0,1,2.64-1.08,6.11,6.11,0,0,1,2.49.57l.21.09V15.46l-.1,0a9.55,9.55,0,0,0-3.19-.43,9.36,9.36,0,0,0-4.52,1.09,7.66,7.66,0,0,0-3.11,3.07,9.12,9.12,0,0,0-1.1,4.5V27h-4v4.63h4V51.09h5.74V31.62h8.51V44c0,5.09,2.4,7.67,7.15,7.67a12.22,12.22,0,0,0,2.43-.27,6.9,6.9,0,0,0,1.78-.56l.07-.05V46.13l-.23.16a4.31,4.31,0,0,1-1.16.5,4.2,4.2,0,0,1-1.13.19,3.07,3.07,0,0,1-2.44-.89A4.76,4.76,0,0,1,200,43V31.61M28.1,78.56a11.08,11.08,0,0,1-4.8.89,9,9,0,0,1-4.38-1A7,7,0,0,1,16,75.52a9.13,9.13,0,0,1-1-4.4,9.62,9.62,0,0,1,1.14-4.7,8,8,0,0,1,3.19-3.21A9.37,9.37,0,0,1,24,62.07a12.32,12.32,0,0,1,4.14.62v3.65a7.34,7.34,0,0,0-3.84-1,5.05,5.05,0,0,0-3.83,1.51,5.59,5.59,0,0,0-1.44,4,5.39,5.39,0,0,0,1.38,3.89,4.87,4.87,0,0,0,3.68,1.44A7.87,7.87,0,0,0,28.1,75.1"/></g><path d="M51,79.15H40.87V62.35h9.69v3.08h-5.9v3.74h5.49v3.07H44.66v3.84H51m20.67-8.69c0-1.47-.88-2.2-2.64-2.2H67.27v4.67h1.64a2.79,2.79,0,0,0,1.94-.69,2.29,2.29,0,0,0,.77-1.78M76.4,79.16H72.05l-1.7-4.33c-.55-1.41-1.3-2.11-2.26-2.11h-.82v6.44H63.49V62.35h6c4.08,0,6.11,1.52,6.11,4.57a4.49,4.49,0,0,1-1,3,5.12,5.12,0,0,1-2.8,1.68v0a4.22,4.22,0,0,1,2.4,2.59m26.19-8.76H95.6V79.16H91.81V65.43H87V62.35H100.4m12.1,0h3.78v16.8H112.5Zm27.16,3.08h-5.93v4.13h5.45v3.07h-5.45v6.52h-3.79V62.35h9.72m12.6,0h3.79v16.8h-3.79Z"/><g style="clip-path:url(#a)"><path d="M179.79,79.15H169.71V62.35h9.69v3.08h-5.91v3.74H179v3.07h-5.5v3.84h6.3m23.45-5.49a5.05,5.05,0,0,0-1.41-3.79A5.33,5.33,0,0,0,198,65.43H196.1V76.08H198a5.09,5.09,0,0,0,3.84-1.46,5.51,5.51,0,0,0,1.42-4m4,0a9,9,0,0,1-1.11,4.52,7.55,7.55,0,0,1-3.15,3,10,10,0,0,1-4.69,1.06h-6V62.35h6q8.94,0,8.95,8.19"/></g></svg>