<svg xmlns="http://www.w3.org/2000/svg" width="258.62" height="135.84" viewBox="0 0 258.62 135.84"><title>Artboard 1</title><rect width="258.62" height="135.84" style="fill:none"/><path d="M46.76,50.88H44.64V38.7q0-1.44.18-3.51h0A11.31,11.31,0,0,1,44.23,37L38.07,50.88H37L30.86,37.05a10.06,10.06,0,0,1-.54-1.86h-.05c.06.73.1,1.91.1,3.54V50.88h-2V32.75h2.79l5.55,12.64a17.11,17.11,0,0,1,.82,2.17h.08q.63-1.74.87-2.22L44.1,32.75h2.66V50.88" style="fill:#080808"/><path d="M52.64,50.88H50.57v-13h2.07v13M53,33.3a1.26,1.26,0,0,1-.4,1,1.34,1.34,0,0,1-1,.39,1.37,1.37,0,0,1-1-.37,1.39,1.39,0,0,1,0-1.93,1.27,1.27,0,0,1,1-.39,1.31,1.31,0,0,1,1,.39,1.3,1.3,0,0,1,.39.95" style="fill:#080808"/><path d="M64.87,50.28a6.66,6.66,0,0,1-3.54.91,6.23,6.23,0,0,1-3.17-.81A5.74,5.74,0,0,1,56,48.07a7.1,7.1,0,0,1-.78-3.35A7.2,7.2,0,0,1,57,39.56a6.41,6.41,0,0,1,4.88-1.94,6.47,6.47,0,0,1,3,.66V40.4a5.22,5.22,0,0,0-3.07-1,4.16,4.16,0,0,0-3.26,1.43,5.46,5.46,0,0,0-1.25,3.71,5.16,5.16,0,0,0,1.19,3.58,4.11,4.11,0,0,0,3.19,1.31,5.21,5.21,0,0,0,3.18-1.11v2" style="fill:#080808"/><path d="M74.08,40a2.76,2.76,0,0,0-3.81.88,6,6,0,0,0-.86,3.37v6.6H67.35v-13h2.06V40.6h0a4.62,4.62,0,0,1,1.33-2.12,3.06,3.06,0,0,1,2-.77,3.61,3.61,0,0,1,1.24.17V40" style="fill:#080808"/><path d="M85,44.43a5.71,5.71,0,0,0-1.08-3.74,3.77,3.77,0,0,0-3.08-1.3,4,4,0,0,0-3.15,1.33,5.56,5.56,0,0,0-1.16,3.76,5.25,5.25,0,0,0,1.17,3.63,4,4,0,0,0,3.14,1.31,3.77,3.77,0,0,0,3.08-1.29A5.61,5.61,0,0,0,85,44.43m2.11-.08a7,7,0,0,1-1.74,5,6.07,6.07,0,0,1-4.68,1.88,6,6,0,0,1-4.57-1.82,6.76,6.76,0,0,1-1.71-4.81,7.17,7.17,0,0,1,1.75-5.08,6.32,6.32,0,0,1,4.83-1.86,5.77,5.77,0,0,1,4.5,1.8,7.09,7.09,0,0,1,1.62,4.93" style="fill:#080808"/><path d="M96.66,47.41a3.35,3.35,0,0,1-1.29,2.73,5.28,5.28,0,0,1-3.43,1,6.35,6.35,0,0,1-3.2-.78V48.18a5.15,5.15,0,0,0,3.35,1.24c1.63,0,2.45-.6,2.45-1.81a1.59,1.59,0,0,0-.48-1.19,8.89,8.89,0,0,0-2.18-1.24,6.46,6.46,0,0,1-2.41-1.58,3.6,3.6,0,0,1,.58-4.91,4.92,4.92,0,0,1,3.26-1.07,6.27,6.27,0,0,1,2.76.6v2.09a4.87,4.87,0,0,0-2.93-.92,2.57,2.57,0,0,0-1.64.5,1.59,1.59,0,0,0-.62,1.3,1.76,1.76,0,0,0,.48,1.33,7.07,7.07,0,0,0,2,1.09,7.17,7.17,0,0,1,2.59,1.64,3.22,3.22,0,0,1,.74,2.16" style="fill:#080808"/><path d="M108.64,44.43a5.71,5.71,0,0,0-1.08-3.74,3.76,3.76,0,0,0-3.08-1.3,4,4,0,0,0-3.15,1.33,5.56,5.56,0,0,0-1.16,3.76,5.25,5.25,0,0,0,1.17,3.63,4,4,0,0,0,3.14,1.31,3.8,3.8,0,0,0,3.09-1.29,5.67,5.67,0,0,0,1.07-3.7m2.11-.08a7,7,0,0,1-1.74,5,6,6,0,0,1-4.68,1.88,6,6,0,0,1-4.57-1.82,6.75,6.75,0,0,1-1.7-4.81,7.13,7.13,0,0,1,1.75-5.08,6.28,6.28,0,0,1,4.82-1.86,5.74,5.74,0,0,1,4.5,1.8,7.09,7.09,0,0,1,1.62,4.93" style="fill:#080808"/><path d="M119.22,33.54a2.75,2.75,0,0,0-1.38-.35c-1.44,0-2.16.92-2.16,2.75v2h3v1.76h-3V50.88h-2.07V39.69h-2.19V37.93h2.19V35.84a4.44,4.44,0,0,1,1.16-3.19,4.42,4.42,0,0,1,4.45-1v1.87" style="fill:#080808"/><path d="M126.72,50.75a3.9,3.9,0,0,1-1.94.42c-2.25,0-3.37-1.28-3.37-3.82V39.69h-2.22V37.93h2.22V34.77l2.06-.67v3.83h3.25v1.76h-3.25V47a3,3,0,0,0,.44,1.85,1.82,1.82,0,0,0,1.48.55,2.15,2.15,0,0,0,1.33-.42v1.77" style="fill:#080808"/><path d="M58.41,63.23q0-3.6-4.23-3.6H51.69v7.43h2.22a5,5,0,0,0,3.34-1,3.54,3.54,0,0,0,1.16-2.84m2.22-.11a5.42,5.42,0,0,1-1.81,4.24A6.9,6.9,0,0,1,54.07,69H51.69v6.86H49.58V57.71h5A6.55,6.55,0,0,1,59,59.13a5.09,5.09,0,0,1,1.6,4" style="fill:#080808"/><path d="M69.34,69.29l-3.12.44A4.59,4.59,0,0,0,64,70.5a2.14,2.14,0,0,0-.64,1.73A1.94,1.94,0,0,0,64,73.79a2.64,2.64,0,0,0,1.78.59,3.29,3.29,0,0,0,2.54-1.09,3.83,3.83,0,0,0,1-2.71V69.29m2.07,6.54H69.34v-2h0a4.32,4.32,0,0,1-4,2.34,4.24,4.24,0,0,1-3-1,3.49,3.49,0,0,1-1.13-2.73q0-3.62,4.26-4.22l3.87-.55c0-2.19-.89-3.28-2.66-3.28a6.36,6.36,0,0,0-4.21,1.58V63.8A6.43,6.43,0,0,1,64.41,63a8.77,8.77,0,0,1,2.45-.4q4.55,0,4.55,4.84v8.41" style="fill:#080808"/><path d="M81.38,65a2.55,2.55,0,0,0-1.57-.42,2.59,2.59,0,0,0-2.23,1.3,6,6,0,0,0-.86,3.37v6.59H74.65V62.89h2.07v2.67h0a4.69,4.69,0,0,1,1.32-2.12,3,3,0,0,1,2.06-.77,3.32,3.32,0,0,1,1.23.17V65" style="fill:#080808"/><path d="M91,75.71a3.93,3.93,0,0,1-1.94.42c-2.25,0-3.38-1.28-3.38-3.82V64.65H83.48V62.89h2.21V59.73l2.07-.67v3.83H91v1.76H87.76V72a3.06,3.06,0,0,0,.44,1.86,1.8,1.8,0,0,0,1.47.55A2.18,2.18,0,0,0,91,73.94v1.77" style="fill:#080808"/><path d="M104.61,75.83h-2.07V68.45q0-4.1-3-4.1A3.27,3.27,0,0,0,97,65.5a4.31,4.31,0,0,0-1,3v7.38H93.9V62.89H96V65H96a4.64,4.64,0,0,1,4.24-2.46A3.89,3.89,0,0,1,103.49,64a6.16,6.16,0,0,1,1.12,3.94v7.92" style="fill:#080808"/><path d="M116,68.13a4.3,4.3,0,0,0-.87-2.79,2.92,2.92,0,0,0-2.36-1,3.32,3.32,0,0,0-2.46,1A4.81,4.81,0,0,0,109,68.13h7m2.11,1.75H109a4.83,4.83,0,0,0,1.16,3.34,4,4,0,0,0,3,1.16,6.32,6.32,0,0,0,4-1.41V74.9a7.37,7.37,0,0,1-4.48,1.25,5.4,5.4,0,0,1-4.31-1.79,7.32,7.32,0,0,1-1.55-5,7.79,7.79,0,0,1,.78-3.5,5.84,5.84,0,0,1,2.13-2.46,5.52,5.52,0,0,1,3-.87,4.88,4.88,0,0,1,3.91,1.63,6.88,6.88,0,0,1,1.4,4.59v1.08" style="fill:#080808"/><path d="M127.23,65a2.76,2.76,0,0,0-3.81.88,6,6,0,0,0-.85,3.37v6.59H120.5V62.89h2.07v2.67h.05a4.53,4.53,0,0,1,1.32-2.12,3,3,0,0,1,2-.77,3.38,3.38,0,0,1,1.24.17V65" style="fill:#080808"/><path d="M83.33,98.38l-.4,1.12h0a9.84,9.84,0,0,0-.38-1.1L80.41,93H78.32v8.52H79.7V96.32c0-.32,0-.71,0-1.16,0-.23,0-.41,0-.54h0c.07.32.14.56.19.72l2.55,6.22h1l2.54-6.27a4.29,4.29,0,0,0,.17-.67h0c0,.62-.06,1.18-.06,1.52v5.42h1.46V93h-2l-2.18,5.34" style="fill:#777471"/><polyline points="88.89 101.56 90.32 101.56 90.32 96.95 90.32 95.45 88.89 95.45 88.89 98.45 88.89 101.56" style="fill:#777471"/><path d="M89.62,92.86a.85.85,0,0,0-.61.24.81.81,0,0,0,0,1.19.87.87,0,0,0,.61.23.91.91,0,0,0,.62-.23.82.82,0,0,0,.25-.59.78.78,0,0,0-.25-.59.81.81,0,0,0-.62-.25" style="fill:#777471"/><path d="M95.39,95.39a4.61,4.61,0,0,0-.8-.08,3.48,3.48,0,0,0-1.74.42,2.73,2.73,0,0,0-1.15,1.18,3.82,3.82,0,0,0-.4,1.75,3.22,3.22,0,0,0,.39,1.58,2.65,2.65,0,0,0,1.07,1.08,3.19,3.19,0,0,0,1.56.38,3.43,3.43,0,0,0,1.73-.4h0V100L96,100a2.9,2.9,0,0,1-.7.36,2.13,2.13,0,0,1-.69.13,1.76,1.76,0,0,1-1.34-.52,2,2,0,0,1-.49-1.45,2.12,2.12,0,0,1,.51-1.49,1.76,1.76,0,0,1,1.35-.56A2.28,2.28,0,0,1,96,97l.06,0V95.63h0a2.51,2.51,0,0,0-.66-.23" style="fill:#777471"/><path d="M100.1,95.35a1.47,1.47,0,0,0-1,.34,2,2,0,0,0-.55.82h0V95.45H97.15v6.11h1.43V98.43a2.14,2.14,0,0,1,.36-1.29,1.07,1.07,0,0,1,.92-.49,1.77,1.77,0,0,1,.43.06.87.87,0,0,1,.33.14l.06,0V95.44h0a1.62,1.62,0,0,0-.56-.08" style="fill:#777471"/><path d="M105.13,100a1.48,1.48,0,0,1-1.21.5,1.54,1.54,0,0,1-1.23-.51,2.24,2.24,0,0,1-.44-1.47,2.32,2.32,0,0,1,.44-1.51,1.5,1.5,0,0,1,1.22-.53,1.49,1.49,0,0,1,1.19.51,2.24,2.24,0,0,1,.43,1.49,2.44,2.44,0,0,1-.4,1.52M104,95.31a3.17,3.17,0,0,0-2.37.87,3.29,3.29,0,0,0-.86,2.4,3.14,3.14,0,0,0,.84,2.28,3,3,0,0,0,2.24.84,3.09,3.09,0,0,0,2.32-.89,3.24,3.24,0,0,0,.86-2.36,3.19,3.19,0,0,0-.81-2.31,3,3,0,0,0-2.22-.83" style="fill:#777471"/><path d="M110.19,98a3.59,3.59,0,0,1-.86-.45.64.64,0,0,1-.17-.47.53.53,0,0,1,.22-.44,1,1,0,0,1,.61-.17,2.51,2.51,0,0,1,1.38.41l.06,0V95.57h0a3.48,3.48,0,0,0-.65-.18,4,4,0,0,0-.72-.07,2.61,2.61,0,0,0-1.68.52,1.65,1.65,0,0,0-.65,1.35,2,2,0,0,0,.14.76,1.53,1.53,0,0,0,.43.56,4,4,0,0,0,.88.5,6.23,6.23,0,0,1,.74.34,1,1,0,0,1,.32.27.57.57,0,0,1,.09.34c0,.41-.31.61-.94.61a2.75,2.75,0,0,1-.79-.14,3.12,3.12,0,0,1-.81-.42l-.06,0v1.4h0a3.9,3.9,0,0,0,.77.24,4.27,4.27,0,0,0,.82.09,2.74,2.74,0,0,0,1.77-.52,1.7,1.7,0,0,0,.66-1.39,1.59,1.59,0,0,0-.35-1,2.9,2.9,0,0,0-1.21-.77" style="fill:#777471"/><path d="M116.74,100a1.48,1.48,0,0,1-1.21.5,1.54,1.54,0,0,1-1.23-.51,2.24,2.24,0,0,1-.44-1.47A2.32,2.32,0,0,1,114.3,97a1.52,1.52,0,0,1,1.22-.53,1.46,1.46,0,0,1,1.19.51,2.25,2.25,0,0,1,.44,1.49,2.44,2.44,0,0,1-.41,1.52m-1.14-4.7a3.19,3.19,0,0,0-2.37.87,3.29,3.29,0,0,0-.85,2.4,3.13,3.13,0,0,0,.83,2.28,3,3,0,0,0,2.24.84,3.07,3.07,0,0,0,2.32-.89,3.7,3.7,0,0,0,.06-4.67,3,3,0,0,0-2.23-.83" style="fill:#777471"/><path d="M126.26,96.62V95.45h-1.45V93.63l0,0-1.36.42h0v1.38h-2.14v-.76a1.27,1.27,0,0,1,.23-.82.85.85,0,0,1,.67-.27,1.67,1.67,0,0,1,.63.14l0,0V92.53h0a2.44,2.44,0,0,0-.8-.1,2.37,2.37,0,0,0-1.14.27,2,2,0,0,0-.79.78,2.34,2.34,0,0,0-.27,1.14v.84h-1v1.17h1v4.94h1.45V96.62h2.14v3.14c0,1.29.61,1.94,1.81,1.94a2.66,2.66,0,0,0,.61-.07,1.49,1.49,0,0,0,.45-.14h0V100.3l-.06,0a1.57,1.57,0,0,1-.29.13,1.17,1.17,0,0,1-.29,0,.75.75,0,0,1-.61-.22,1.22,1.22,0,0,1-.2-.78V96.62h1.45" style="fill:#777471"/><polyline points="66.64 96.95 59.91 96.95 59.91 90.2 66.64 90.2 66.64 96.95" style="fill:#e34c22"/><polyline points="74.08 96.95 67.34 96.95 67.34 90.2 74.08 90.2 74.08 96.95" style="fill:#6dbb29"/><polyline points="66.64 104.41 59.91 104.41 59.91 97.66 66.64 97.66 66.64 104.41" style="fill:#599dd5"/><polyline points="74.08 104.41 67.34 104.41 67.34 97.66 74.08 97.66 74.08 104.41" style="fill:#f3bf00"/><line x1="137.48" y1="28.42" x2="137.48" y2="107.42" style="fill:none;stroke:#000;stroke-miterlimit:10;stroke-width:0.4000000059604645px"/><path d="M154.87,63.42a4.42,4.42,0,0,1-2.26.58,3.29,3.29,0,0,1-1.69-.43,2.9,2.9,0,0,1-1.14-1.21,3.78,3.78,0,0,1-.4-1.77,3.51,3.51,0,0,1,1-2.56,3.33,3.33,0,0,1,2.52-1,4.27,4.27,0,0,1,1.85.36v.88a3.55,3.55,0,0,0-1.94-.53,2.54,2.54,0,0,0-1.34.36,2.44,2.44,0,0,0-.92,1,3.12,3.12,0,0,0-.33,1.44,2.88,2.88,0,0,0,.67,2,2.36,2.36,0,0,0,1.83.73,2.72,2.72,0,0,0,1.37-.32V61.07H152.6v-.71h2.27v3.06" style="fill:#856a1a"/><path d="M160.72,61.45a2.63,2.63,0,0,1-.65,1.85,2.28,2.28,0,0,1-1.75.7,2.23,2.23,0,0,1-1.71-.68,2.49,2.49,0,0,1-.64-1.79,2.62,2.62,0,0,1,.66-1.89,2.31,2.31,0,0,1,1.8-.7,2.13,2.13,0,0,1,1.68.67,2.62,2.62,0,0,1,.61,1.84h0m-.79,0a2.14,2.14,0,0,0-.41-1.4,1.4,1.4,0,0,0-1.15-.48,1.48,1.48,0,0,0-1.17.5,2.06,2.06,0,0,0-.44,1.4,1.94,1.94,0,0,0,.44,1.35,1.48,1.48,0,0,0,1.17.49,1.42,1.42,0,0,0,1.16-.48,2.08,2.08,0,0,0,.4-1.38" style="fill:#856a1a"/><polyline points="162.69 63.88 161.92 63.88 161.92 56.74 162.69 56.74 162.69 63.88" style="fill:#856a1a"/><path d="M168.33,63.88h-.77v-.82h0a1.93,1.93,0,0,1-3.11.28,2.6,2.6,0,0,1-.55-1.75,2.9,2.9,0,0,1,.6-1.92,2,2,0,0,1,1.61-.73,1.56,1.56,0,0,1,1.45.78h0v-3h.77v7.14h0m-.77-2.18V61a1.35,1.35,0,0,0-.4-1,1.31,1.31,0,0,0-1-.4,1.35,1.35,0,0,0-1.11.52,2.25,2.25,0,0,0-.41,1.43,2,2,0,0,0,.39,1.31,1.28,1.28,0,0,0,1,.48,1.32,1.32,0,0,0,1.05-.46,1.73,1.73,0,0,0,.41-1.18" style="fill:#856a1a"/><path d="M177.66,60.42a3.61,3.61,0,0,1-.45,1.82,3,3,0,0,1-1.29,1.22,4.16,4.16,0,0,1-1.91.42h-1.78V57.13h1.86c2.38,0,3.57,1.09,3.57,3.29h0m-.83,0c0-1.73-.92-2.6-2.76-2.6h-1v5.33h1a2.86,2.86,0,0,0,2.08-.72,2.67,2.67,0,0,0,.73-2" style="fill:#856a1a"/><path d="M182.3,63.88h-.77v-.75h0a1.75,1.75,0,0,1-2.6.49,1.3,1.3,0,0,1-.42-1c0-.9.53-1.42,1.59-1.57l1.45-.21c0-.81-.33-1.22-1-1.22a2.42,2.42,0,0,0-1.58.59V59.4a2.35,2.35,0,0,1,.73-.31,3.31,3.31,0,0,1,.91-.15c1.14,0,1.7.6,1.7,1.8v3.14h0m-.77-2.44-1.17.17a1.7,1.7,0,0,0-.84.28.81.81,0,0,0-.24.65.72.72,0,0,0,.26.58,1,1,0,0,0,.67.22,1.2,1.2,0,0,0,.94-.4,1.42,1.42,0,0,0,.38-1v-.48" style="fill:#856a1a"/><path d="M186,63.83a1.44,1.44,0,0,1-.73.16c-.84,0-1.26-.47-1.26-1.42V59.71h-.83v-.65H184V57.88l.77-.25v1.43H186v.65h-1.22v2.73a1.13,1.13,0,0,0,.17.69.68.68,0,0,0,.55.2.84.84,0,0,0,.5-.15v.65" style="fill:#856a1a"/><path d="M190.43,63.88h-.77v-.75h0a1.75,1.75,0,0,1-2.6.49,1.3,1.3,0,0,1-.42-1c0-.9.53-1.42,1.59-1.57l1.45-.21c0-.81-.34-1.22-1-1.22a2.4,2.4,0,0,0-1.57.59V59.4a2.27,2.27,0,0,1,.72-.31,3.37,3.37,0,0,1,.92-.15c1.13,0,1.7.6,1.7,1.8v3.14h0m-.77-2.44-1.17.17a1.7,1.7,0,0,0-.84.28.81.81,0,0,0-.24.65.69.69,0,0,0,.26.58,1,1,0,0,0,.66.22,1.24,1.24,0,0,0,.95-.4,1.46,1.46,0,0,0,.38-1v-.48" style="fill:#856a1a"/><path d="M199.45,63.88h-.88L197.86,62H195l-.67,1.89h-.88L196,57.13h.82l2.61,6.75h0m-1.85-2.6-1.06-2.88a2.37,2.37,0,0,1-.11-.45h0a1.73,1.73,0,0,1-.11.45l-1.05,2.88h2.35" style="fill:#856a1a"/><path d="M204.34,63.88h-.77V61.13c0-1-.37-1.53-1.12-1.53a1.23,1.23,0,0,0-1,.43,1.62,1.62,0,0,0-.38,1.1v2.75h-.77V59.06h.77v.8h0a1.74,1.74,0,0,1,1.58-.92,1.44,1.44,0,0,1,1.21.52,2.26,2.26,0,0,1,.42,1.47v3" style="fill:#856a1a"/><path d="M209.2,63.88h-.77v-.75h0a1.75,1.75,0,0,1-2.6.49,1.3,1.3,0,0,1-.42-1c0-.9.53-1.42,1.6-1.57l1.44-.21c0-.81-.33-1.22-1-1.22a2.42,2.42,0,0,0-1.58.59V59.4a2.46,2.46,0,0,1,.73-.31,3.31,3.31,0,0,1,.91-.15c1.14,0,1.7.6,1.7,1.8v3.14h0m-.77-2.44-1.17.17a1.66,1.66,0,0,0-.83.28.78.78,0,0,0-.25.65.72.72,0,0,0,.26.58,1,1,0,0,0,.67.22,1.24,1.24,0,0,0,.95-.4,1.46,1.46,0,0,0,.37-1v-.48" style="fill:#856a1a"/><polyline points="211.43 63.88 210.65 63.88 210.65 56.74 211.43 56.74 211.43 63.88" style="fill:#856a1a"/><path d="M216.83,59.06l-2.22,5.59c-.4,1-1,1.5-1.67,1.5a1.75,1.75,0,0,1-.5-.06V65.4a1.26,1.26,0,0,0,.45.08,1,1,0,0,0,.88-.69l.39-.92-1.89-4.81h.86l1.3,3.71.1.37h0a2.07,2.07,0,0,1,.1-.36L216,59.06h.8" style="fill:#856a1a"/><path d="M219.89,63.83a1.44,1.44,0,0,1-.73.16c-.84,0-1.26-.47-1.26-1.42V59.71h-.83v-.65h.83V57.88l.77-.25v1.43h1.22v.65h-1.22v2.73a1.13,1.13,0,0,0,.16.69.7.7,0,0,0,.56.2.87.87,0,0,0,.5-.15v.65" style="fill:#856a1a"/><path d="M221.81,57.33a.49.49,0,0,1-.15.36.48.48,0,0,1-.36.14.48.48,0,0,1-.35-.13.52.52,0,0,1,0-.72.49.49,0,0,1,.36-.15.5.5,0,0,1,.37.15.48.48,0,0,1,.14.35h0m-.13,6.55h-.77V59.06h.77v4.82" style="fill:#856a1a"/><path d="M226.49,63.66a2.45,2.45,0,0,1-1.32.34,2.39,2.39,0,0,1-1.19-.3,2.1,2.1,0,0,1-.81-.86,2.59,2.59,0,0,1-.29-1.25,2.65,2.65,0,0,1,.68-1.92,2.39,2.39,0,0,1,1.83-.73,2.45,2.45,0,0,1,1.11.24V60a2,2,0,0,0-1.15-.38,1.57,1.57,0,0,0-1.22.54,2,2,0,0,0-.46,1.38,1.94,1.94,0,0,0,.44,1.33,1.54,1.54,0,0,0,1.2.49,2,2,0,0,0,1.18-.41v.73" style="fill:#856a1a"/><path d="M230.3,62.59a1.23,1.23,0,0,1-.49,1,2,2,0,0,1-1.28.39,2.45,2.45,0,0,1-1.2-.29v-.83a1.94,1.94,0,0,0,1.26.46c.61,0,.92-.22.92-.67a.6.6,0,0,0-.18-.45,3.4,3.4,0,0,0-.82-.46,2.29,2.29,0,0,1-.9-.59,1.24,1.24,0,0,1-.27-.83,1.25,1.25,0,0,1,.48-1,1.83,1.83,0,0,1,1.22-.4,2.37,2.37,0,0,1,1,.23v.77a1.82,1.82,0,0,0-1.1-.34.91.91,0,0,0-.61.19.58.58,0,0,0-.24.48.67.67,0,0,0,.18.5,2.71,2.71,0,0,0,.74.4,2.7,2.7,0,0,1,1,.62,1.2,1.2,0,0,1,.28.8" style="fill:#856a1a"/><path d="M154.87,77.29a4.42,4.42,0,0,1-2.26.58,3.29,3.29,0,0,1-1.69-.43,2.9,2.9,0,0,1-1.14-1.21,3.78,3.78,0,0,1-.4-1.77,3.51,3.51,0,0,1,1-2.56,3.33,3.33,0,0,1,2.52-1,4.27,4.27,0,0,1,1.85.36v.88a3.55,3.55,0,0,0-1.94-.53,2.54,2.54,0,0,0-1.34.36,2.44,2.44,0,0,0-.92,1,3.12,3.12,0,0,0-.33,1.44,2.88,2.88,0,0,0,.67,2,2.36,2.36,0,0,0,1.83.73,2.72,2.72,0,0,0,1.37-.32V74.94H152.6v-.71h2.27v3.06" style="fill:#856a1a"/><path d="M160.72,75.32a2.63,2.63,0,0,1-.65,1.85,2.28,2.28,0,0,1-1.75.7,2.23,2.23,0,0,1-1.71-.68A2.49,2.49,0,0,1,156,75.4a2.62,2.62,0,0,1,.66-1.89,2.31,2.31,0,0,1,1.8-.7,2.13,2.13,0,0,1,1.68.67,2.62,2.62,0,0,1,.61,1.84h0m-.79,0a2.14,2.14,0,0,0-.41-1.4,1.4,1.4,0,0,0-1.15-.48,1.48,1.48,0,0,0-1.17.5,2.06,2.06,0,0,0-.44,1.4,2,2,0,0,0,.44,1.36,1.5,1.5,0,0,0,1.17.48,1.42,1.42,0,0,0,1.16-.48,2.08,2.08,0,0,0,.4-1.38" style="fill:#856a1a"/><polyline points="162.69 77.75 161.92 77.75 161.92 70.61 162.69 70.61 162.69 77.75" style="fill:#856a1a"/><path d="M168.33,77.75h-.77v-.82h0a1.94,1.94,0,0,1-3.11.29,2.65,2.65,0,0,1-.55-1.76,2.9,2.9,0,0,1,.6-1.92,2,2,0,0,1,1.61-.73,1.56,1.56,0,0,1,1.45.78h0v-3h.77v7.14h0m-.77-2.18v-.71a1.35,1.35,0,0,0-.4-1,1.31,1.31,0,0,0-1-.4,1.35,1.35,0,0,0-1.11.52,2.25,2.25,0,0,0-.41,1.43,2,2,0,0,0,.39,1.31,1.28,1.28,0,0,0,1,.48,1.32,1.32,0,0,0,1.05-.46,1.73,1.73,0,0,0,.41-1.18" style="fill:#856a1a"/><path d="M177.66,74.29a3.59,3.59,0,0,1-.45,1.82,3,3,0,0,1-1.29,1.22,4.16,4.16,0,0,1-1.91.42h-1.78V71h1.86c2.38,0,3.57,1.09,3.57,3.29h0m-.83,0c0-1.73-.92-2.6-2.76-2.6h-1V77h1a2.86,2.86,0,0,0,2.08-.72,2.65,2.65,0,0,0,.73-2" style="fill:#856a1a"/><path d="M182.3,77.75h-.77V77h0a1.75,1.75,0,0,1-2.6.49,1.3,1.3,0,0,1-.42-1c0-.9.53-1.42,1.59-1.57l1.45-.21c0-.81-.33-1.22-1-1.22a2.42,2.42,0,0,0-1.58.59v-.79a2.35,2.35,0,0,1,.73-.31,3.31,3.31,0,0,1,.91-.15c1.14,0,1.7.6,1.7,1.8v3.14h0m-.77-2.44-1.17.17a1.7,1.7,0,0,0-.84.28.81.81,0,0,0-.24.65.72.72,0,0,0,.26.58,1,1,0,0,0,.67.22,1.2,1.2,0,0,0,.94-.4,1.4,1.4,0,0,0,.38-1v-.48" style="fill:#856a1a"/><path d="M186,77.71a1.55,1.55,0,0,1-.73.15c-.84,0-1.26-.47-1.26-1.42V73.58h-.83v-.65H184V71.75l.77-.25v1.43H186v.65h-1.22v2.73a1.13,1.13,0,0,0,.17.69.68.68,0,0,0,.55.2.84.84,0,0,0,.5-.15v.66" style="fill:#856a1a"/><path d="M190.43,77.75h-.77V77h0a1.75,1.75,0,0,1-2.6.49,1.3,1.3,0,0,1-.42-1c0-.9.53-1.42,1.59-1.57l1.45-.21c0-.81-.34-1.22-1-1.22a2.4,2.4,0,0,0-1.57.59v-.79a2.27,2.27,0,0,1,.72-.31,3.37,3.37,0,0,1,.92-.15c1.13,0,1.7.6,1.7,1.8v3.14h0m-.77-2.44-1.17.17a1.7,1.7,0,0,0-.84.28.81.81,0,0,0-.24.65.69.69,0,0,0,.26.58,1,1,0,0,0,.66.22,1.24,1.24,0,0,0,.95-.4,1.45,1.45,0,0,0,.38-1v-.48" style="fill:#856a1a"/><path d="M198.35,73a2,2,0,0,1-.68,1.59,2.61,2.61,0,0,1-1.77.59H195v2.56h-.79V71h1.85a2.39,2.39,0,0,1,1.68.53,1.87,1.87,0,0,1,.6,1.48h0m-.83,0c0-.9-.53-1.35-1.58-1.35H195v2.77h.83a1.92,1.92,0,0,0,1.25-.36,1.33,1.33,0,0,0,.43-1.06" style="fill:#856a1a"/><polyline points="200.29 77.75 199.52 77.75 199.52 70.61 200.29 70.61 200.29 77.75" style="fill:#856a1a"/><path d="M205.27,77.75h-.77V77h0a1.75,1.75,0,0,1-2.6.49,1.3,1.3,0,0,1-.42-1c0-.9.53-1.42,1.59-1.57l1.45-.21c0-.81-.34-1.22-1-1.22a2.4,2.4,0,0,0-1.57.59v-.79a2.27,2.27,0,0,1,.72-.31,3.37,3.37,0,0,1,.92-.15c1.13,0,1.7.6,1.7,1.8v3.14h0m-.77-2.44-1.17.17a1.7,1.7,0,0,0-.84.28.81.81,0,0,0-.24.65.69.69,0,0,0,.26.58,1,1,0,0,0,.66.22,1.24,1.24,0,0,0,1-.4,1.45,1.45,0,0,0,.38-1v-.48" style="fill:#856a1a"/><path d="M209,77.71a1.48,1.48,0,0,1-.72.15c-.84,0-1.26-.47-1.26-1.42V73.58h-.83v-.65H207V71.75l.77-.25v1.43H209v.65h-1.21v2.73a1.13,1.13,0,0,0,.16.69.7.7,0,0,0,.55.2.82.82,0,0,0,.5-.15v.66" style="fill:#856a1a"/><path d="M212.36,71.29a1,1,0,0,0-.51-.13q-.81,0-.81,1v.75h1.13v.65H211v4.17h-.78V73.58h-.82v-.65h.82v-.78A1.65,1.65,0,0,1,210.7,71a1.68,1.68,0,0,1,1.66-.37v.7" style="fill:#856a1a"/><path d="M217.37,75.32a2.59,2.59,0,0,1-.66,1.85,2.5,2.5,0,0,1-3.45,0,2.49,2.49,0,0,1-.64-1.79,2.66,2.66,0,0,1,.65-1.89,2.35,2.35,0,0,1,1.81-.7,2.13,2.13,0,0,1,1.68.67,2.62,2.62,0,0,1,.61,1.84h0m-.79,0a2.14,2.14,0,0,0-.41-1.4,1.4,1.4,0,0,0-1.15-.48,1.5,1.5,0,0,0-1.18.5,2.11,2.11,0,0,0-.43,1.4,2,2,0,0,0,.43,1.36,1.54,1.54,0,0,0,1.18.48,1.42,1.42,0,0,0,1.16-.48,2.14,2.14,0,0,0,.4-1.38" style="fill:#856a1a"/><path d="M221.08,73.71a1,1,0,0,0-.59-.16,1,1,0,0,0-.83.49,2.17,2.17,0,0,0-.32,1.25v2.46h-.78V72.93h.78v1h0a1.64,1.64,0,0,1,.49-.78,1.11,1.11,0,0,1,.77-.3,1.35,1.35,0,0,1,.46.07v.8" style="fill:#856a1a"/><path d="M228.77,77.75H228V75a2,2,0,0,0-.25-1.16,1,1,0,0,0-.83-.35,1,1,0,0,0-.84.45,1.73,1.73,0,0,0-.35,1.08v2.75H225V74.89c0-1-.37-1.42-1.1-1.42a1,1,0,0,0-.84.43,1.74,1.74,0,0,0-.33,1.1v2.75h-.77V72.93h.77v.76h0a1.64,1.64,0,0,1,1.5-.88,1.52,1.52,0,0,1,.85.26,1.42,1.42,0,0,1,.52.74,1.72,1.72,0,0,1,1.6-1c1.06,0,1.59.66,1.59,2v3" style="fill:#856a1a"/></svg>