<?xml version="1.0" encoding="utf-8"?>
<!-- Generator: Adobe Illustrator 22.1.0, SVG Export Plug-In . SVG Version: 6.00 Build 0)  -->
<svg version="1.1" id="Microsoft_xAE__Most_Valuable_Professional_1_"
	 xmlns="http://www.w3.org/2000/svg" xmlns:xlink="http://www.w3.org/1999/xlink" x="0px" y="0px" viewBox="0 0 301 121.5"
	 style="enable-background:new 0 0 301 121.5;" xml:space="preserve">
<style type="text/css">
	.st0{clip-path:url(#SVGID_2_);}
</style>
<g>
	<defs>
		<rect id="SVGID_1_" width="301" height="121.5"/>
	</defs>
	<clipPath id="SVGID_2_">
		<use xlink:href="#SVGID_1_"  style="overflow:visible;"/>
	</clipPath>
	<path class="st0" d="M47.1,63c-0.2,0.8-0.4,2.1-0.6,3.9l-0.2,1.2h-0.1c-0.1-1.3-0.4-3-0.8-4.9L41,43.7h-8.6v32h5.1V58.7
		c0-2.9-0.1-5.9-0.2-8.9h0.2l0.9,5.7l4.9,20.2h5.6l4.7-20.5c0.4-2.2,0.8-4,1-5.4h0.1c-0.2,3.2-0.2,5.6-0.2,7.2v18.6h5.3v-32h-8.3
		L47.1,63z M92.4,64.8h2.6c3,0,5.5-1,7.3-3.1c1.9-2.1,2.8-4.7,2.8-7.8c0-3.3-0.8-5.8-2.5-7.6c-1.7-1.7-4-2.6-7.1-2.6h-9.2v32h6.1
		V64.8z M92.4,49.1h2.1c1.3,0,2.3,0.4,3.1,1.3c0.8,0.8,1.2,2.1,1.2,3.9c0,3.5-1.4,5.3-4.2,5.3h-2.1V49.1z M69.6,75.7h6.6l8.2-32
		h-6.2l-4.4,20.9c-0.2,1.2-0.4,2.3-0.5,3.3l-0.1,0.8H73c-0.1-1.6-0.3-3-0.5-4.1l-4.4-21.1h-6.4L69.6,75.7z M66.4,113.7l-53-53l53-53
		l53,53L66.4,113.7z"/>
	<path class="st0" d="M151.5,46.1V30.3c0-1.4,0.1-3.4,0.2-6.1h-0.1c-0.2,1.1-0.4,2.7-0.8,4.6l-3.9,17.3H142L137.9,29l-0.7-4.8H137
		c0.1,2.5,0.2,5.1,0.2,7.5v14.4h-4.3V19h7.3l3.8,16.5c0.4,1.7,0.6,3.1,0.7,4.2h0.1l0.1-1c0.2-1.5,0.3-2.6,0.5-3.3l3.6-16.3h7v27.1
		H151.5z"/>
	<path class="st0" d="M162.6,24.1c-0.9,0-1.6-0.3-2.1-0.9c-0.6-0.6-0.8-1.3-0.8-2.1c0-0.9,0.3-1.6,0.9-2.2c0.6-0.5,1.3-0.8,2.1-0.8
		c0.9,0,1.6,0.3,2.2,0.8c0.6,0.6,0.8,1.3,0.8,2.2c0,0.9-0.3,1.6-0.8,2.2C164.3,23.8,163.5,24.1,162.6,24.1 M160.2,26.7h4.9v19.3
		h-4.9V26.7z"/>
	<path class="st0" d="M179.7,45.3c-1,0.7-2.3,1.1-4,1.1c-2.2,0-4-0.9-5.4-2.7c-1.4-1.8-2.1-4.1-2.1-6.9c0-3.3,0.7-5.8,2.2-7.7
		c1.5-1.9,3.4-2.8,5.9-2.8c1.6,0,2.7,0.3,3.4,0.8v4.3c-0.7-0.7-1.6-1.1-2.6-1.1c-1.1,0-2.1,0.6-2.7,1.7c-0.7,1.1-1,2.6-1,4.4
		c0,1.9,0.3,3.4,0.9,4.4c0.6,1,1.5,1.5,2.6,1.5c1.1,0,2-0.4,2.8-1.1V45.3z"/>
	<path class="st0" d="M192.9,31.4c-0.6-0.2-1.1-0.4-1.7-0.4c-2.4,0-3.6,1.8-3.6,5.3v9.8h-4.9V26.7h4.9V30h0.1c0.7-2.4,2-3.6,4-3.6
		c0.4,0,0.8,0.1,1.2,0.2V31.4z"/>
	<path class="st0" d="M201.2,46.4c-2.5,0-4.4-0.9-5.8-2.6c-1.4-1.8-2-4.2-2-7.4c0-3.2,0.7-5.6,2.1-7.4c1.4-1.7,3.3-2.6,5.8-2.6
		c2.5,0,4.4,0.9,5.8,2.6c1.4,1.7,2.1,4.1,2.1,7.1c0,3.3-0.7,5.9-2.1,7.7C205.7,45.5,203.7,46.4,201.2,46.4 M201.2,30.5
		c-1.9,0-2.8,2-2.8,5.9c0,4,0.9,6,2.8,6c1.8,0,2.8-2.1,2.8-6.2C204,32.4,203.1,30.5,201.2,30.5"/>
	<path class="st0" d="M211.6,45.5v-4.3c1.4,1,2.8,1.4,4.3,1.4c1.5,0,2.3-0.6,2.3-1.9c0-0.5-0.2-0.9-0.6-1.3c-0.4-0.3-1-0.7-1.7-1.2
		c-1.8-1-3-2-3.5-3c-0.5-0.9-0.8-2-0.8-3.1c0-1.7,0.6-3.1,1.8-4.2c1.2-1.1,2.8-1.6,4.9-1.6c1.4,0,2.8,0.2,4,0.7v4.2
		c-1.3-0.7-2.5-1.1-3.5-1.1c-1.5,0-2.3,0.6-2.3,1.9c0,0.4,0.1,0.8,0.4,1.1c0.3,0.3,1,0.8,2.1,1.4c1.7,1,2.8,1.9,3.3,2.8
		c0.5,0.9,0.8,1.9,0.8,3.1c0,1.7-0.6,3.2-1.7,4.2c-1.2,1.1-2.9,1.6-5.1,1.6C214.3,46.4,212.8,46.1,211.6,45.5"/>
	<path class="st0" d="M233,46.4c-2.5,0-4.4-0.9-5.8-2.6c-1.4-1.8-2-4.2-2-7.4c0-3.2,0.7-5.6,2.1-7.4c1.4-1.7,3.3-2.6,5.8-2.6
		c2.5,0,4.4,0.9,5.8,2.6c1.4,1.7,2.1,4.1,2.1,7.1c0,3.3-0.7,5.9-2,7.7C237.5,45.5,235.5,46.4,233,46.4 M233,30.5
		c-1.9,0-2.8,2-2.8,5.9c0,4,0.9,6,2.8,6c1.8,0,2.8-2.1,2.8-6.2C235.8,32.4,234.9,30.5,233,30.5"/>
	<path class="st0" d="M252.5,21.4c-0.4-0.2-0.9-0.2-1.4-0.2c-1.4,0-2.1,0.8-2.1,2.5v3.1h3.1v4H249v15.3h-4.9V30.8h-2.2v-4h2.2v-2.9
		c0-2.1,0.5-3.8,1.6-4.9c1.1-1.2,2.7-1.8,4.8-1.8c0.4,0,0.8,0,1.2,0.1l0.8,0.2V21.4z"/>
	<path class="st0" d="M263.2,45.8c-1,0.4-2.1,0.6-3.2,0.6c-3.3,0-5-2-5-5.9v-9.7h-3.9v-4h3.9v-4.3l0.4-0.1c2.8-0.9,4.4-1.4,4.5-1.4
		v5.9h3.3v4h-3.3v9.3c0,1.5,0.6,2.3,1.8,2.3c0.6,0,1.1-0.1,1.5-0.3V45.8z"/>
	<path class="st0" d="M270.4,31c-1.3,0-2.5-0.4-3.4-1.3c-0.9-0.9-1.4-2-1.4-3.3c0-1.3,0.5-2.4,1.4-3.3c0.9-0.9,2-1.3,3.4-1.3
		c1.3,0,2.4,0.4,3.3,1.3c0.9,0.9,1.3,2,1.3,3.3c0,1.3-0.5,2.4-1.4,3.3C272.9,30.6,271.7,31,270.4,31 M270.4,22.5
		c-1.1,0-2.1,0.4-2.8,1.1c-0.8,0.8-1.1,1.7-1.1,2.8c0,1.1,0.4,2.1,1.2,2.8c0.8,0.8,1.7,1.1,2.8,1.1c1.1,0,2-0.4,2.8-1.1
		c0.8-0.8,1.2-1.7,1.2-2.8c0-1.1-0.4-2.1-1.1-2.8C272.5,22.8,271.6,22.5,270.4,22.5 M271.4,29.3l-0.5-1.5c-0.2-0.6-0.5-0.9-0.8-0.9
		h-0.5v2.3h-1.1v-5.8h1.9c0.7,0,1.3,0.1,1.7,0.4c0.4,0.3,0.6,0.7,0.6,1.2c0,0.8-0.5,1.3-1.4,1.5v0c0.4,0.1,0.7,0.4,0.9,1l0.7,1.7
		H271.4z M269.6,24.4v1.7h0.8c0.3,0,0.5-0.1,0.7-0.2c0.2-0.2,0.3-0.4,0.3-0.6c0-0.6-0.4-0.8-1.1-0.8H269.6z"/>
	<path class="st0" d="M147,75.1V61.5c0-0.8,0-1.5,0.1-2.1l0.1-1.5h-0.1c-0.2,1.1-0.4,2-0.6,2.6l-4.8,14.7h-1.5l-4.8-14.6
		c-0.1-0.3-0.3-1.3-0.6-2.8h-0.1c0.1,1.4,0.2,2.7,0.2,4v13.4h-1.9V54.8h2.7l4.8,14.7c0.2,0.7,0.4,1.4,0.6,2.3h0.1l0.6-2.4l4.7-14.6
		h2.7v20.3H147z"/>
	<path class="st0" d="M157.8,75.4c-1.7,0-3.1-0.7-4-2c-0.9-1.3-1.4-3.1-1.4-5.4c0-2.4,0.5-4.3,1.5-5.6c1-1.3,2.3-2,4.1-2
		c1.7,0,3,0.7,4,2c1,1.3,1.4,3.1,1.4,5.4c0,2.4-0.5,4.3-1.4,5.7C161,74.7,159.6,75.4,157.8,75.4 M157.9,62.1c-1.1,0-1.9,0.5-2.5,1.5
		c-0.6,1-0.9,2.4-0.9,4.2c0,3.8,1.1,5.7,3.4,5.7c2.2,0,3.3-1.9,3.3-5.8c0-1.8-0.3-3.2-0.9-4.2C159.7,62.6,158.9,62.1,157.9,62.1"/>
	<path class="st0" d="M165.6,74.6v-2.1c1.1,0.7,2.1,1.1,3.2,1.1c1.7,0,2.6-0.8,2.6-2.3c0-0.5-0.2-0.9-0.5-1.3
		c-0.3-0.4-1-0.9-1.9-1.4c-1.4-0.8-2.3-1.5-2.7-2.2c-0.4-0.6-0.6-1.4-0.6-2.1c0-1.2,0.4-2.1,1.3-2.9c0.8-0.8,1.9-1.1,3.3-1.1
		c1.1,0,2,0.2,2.8,0.6v2c-1-0.5-1.9-0.8-2.8-0.8c-0.8,0-1.4,0.2-1.8,0.6c-0.4,0.4-0.7,0.9-0.7,1.6c0,0.5,0.1,0.9,0.4,1.3
		c0.3,0.4,1,0.9,2,1.5c1.4,0.8,2.3,1.5,2.7,2.1c0.4,0.6,0.6,1.4,0.6,2.1c0,1.2-0.4,2.1-1.2,2.9c-0.8,0.8-2,1.1-3.4,1.1
		C167.6,75.4,166.5,75.1,165.6,74.6"/>
	<path class="st0" d="M181.7,75c-0.6,0.2-1.2,0.4-1.9,0.4c-2.1,0-3.2-1.2-3.2-3.7v-9.3h-2v-1.7h2V57l2.1-0.7v4.3h3v1.7h-3v9.1
		c0,1.4,0.6,2.1,1.7,2.1c0.5,0,0.9-0.1,1.3-0.3V75z"/>
	<path class="st0" d="M196,75.1h-2.2l-5.6-20.3h2.3l4,15.3c0.2,0.6,0.3,1.3,0.4,2.1h0.1c0-0.2,0.2-0.9,0.4-2.2l4.2-15.3h2.2
		L196,75.1z"/>
	<path class="st0" d="M210.1,75.1v-2.2H210c-0.7,1.6-2,2.4-3.7,2.4c-1.1,0-1.9-0.4-2.6-1.1c-0.7-0.8-1-1.7-1-2.9
		c0-2.5,1.3-4.1,3.9-4.6l3.4-0.8v-1c0-1.9-0.8-2.8-2.5-2.8c-1.2,0-2.4,0.5-3.7,1.5v-2.1c1.3-0.8,2.7-1.2,4-1.2
		c2.8,0,4.3,1.6,4.3,4.7v10H210.1z M210.1,67.5l-2.8,0.6c-1.6,0.4-2.4,1.3-2.4,2.9c0,0.8,0.2,1.4,0.6,1.9c0.4,0.5,1,0.7,1.6,0.7
		c0.9,0,1.7-0.4,2.2-1.1c0.5-0.7,0.8-1.7,0.8-2.9V67.5z"/>
	<rect x="215.7" y="53.6" class="st0" width="2.1" height="21.5"/>
	<path class="st0" d="M229,75.1v-2.2H229c-0.8,1.6-2,2.4-3.7,2.4c-2.6,0-4-1.5-4-4.6V60.6h2.1v9.6c0,2.2,0.9,3.3,2.6,3.3
		c0.9,0,1.6-0.3,2.2-1c0.6-0.7,0.9-1.5,0.9-2.6v-9.3h2.1v14.5H229z"/>
	<path class="st0" d="M241.2,75.1v-2.2h-0.1c-0.7,1.6-2,2.4-3.7,2.4c-1.1,0-1.9-0.4-2.6-1.1c-0.7-0.8-1-1.7-1-2.9
		c0-2.5,1.3-4.1,3.9-4.6l3.4-0.8v-1c0-1.9-0.8-2.8-2.5-2.8c-1.2,0-2.4,0.5-3.7,1.5v-2.1c1.3-0.8,2.7-1.2,4-1.2
		c2.8,0,4.3,1.6,4.3,4.7v10H241.2z M241.2,67.5l-2.9,0.6c-1.6,0.4-2.4,1.3-2.4,2.9c0,0.8,0.2,1.4,0.6,1.9c0.4,0.5,1,0.7,1.6,0.7
		c0.9,0,1.7-0.4,2.2-1.1c0.5-0.7,0.8-1.7,0.8-2.9V67.5z"/>
	<path class="st0" d="M248.9,73.3L248.9,73.3l-0.1,1.9h-2.1V53.6h2.1V63h0.1c0.8-1.8,2-2.6,3.8-2.6c1.4,0,2.6,0.6,3.3,1.8
		c0.8,1.2,1.2,2.9,1.2,5c0,2.6-0.4,4.6-1.3,6c-0.9,1.4-2.1,2.2-3.8,2.2C250.7,75.4,249.6,74.7,248.9,73.3 M248.8,67v2
		c0,1.3,0.3,2.4,0.8,3.3c0.5,0.8,1.3,1.3,2.2,1.3c2.2,0,3.3-2.1,3.3-6.2c0-1.7-0.3-3-0.8-3.9c-0.5-0.9-1.3-1.3-2.2-1.3
		c-1,0-1.8,0.5-2.4,1.4C249.1,64.4,248.8,65.6,248.8,67"/>
	<rect x="260.2" y="53.6" class="st0" width="2.1" height="21.5"/>
	<path class="st0" d="M267.3,68.4c0,3.5,1.3,5.3,3.8,5.3c1.1,0,2.2-0.4,3.4-1.2v1.9c-1.1,0.7-2.3,1-3.6,1c-1.8,0-3.2-0.6-4.2-1.9
		c-1-1.3-1.4-3.2-1.4-5.7c0-2.2,0.5-4,1.5-5.4c1-1.4,2.3-2.1,4-2.1c3.1,0,4.7,2.2,4.7,6.6v1.4H267.3z M273.3,66.7
		c0-3.1-0.9-4.6-2.7-4.6c-0.9,0-1.7,0.4-2.2,1.2c-0.6,0.8-0.9,1.9-1,3.5H273.3z"/>
	<path class="st0" d="M135.1,96.5v7.7h-2.2V83.8h4.6c1.8,0,3.1,0.5,4.1,1.5c1,1,1.4,2.5,1.4,4.5c0,1.9-0.5,3.5-1.6,4.8
		c-1.1,1.3-2.5,1.9-4.4,1.9H135.1z M135.1,85.7v8.8h1.9c1.2,0,2.2-0.4,2.8-1.2c0.7-0.8,1-1.9,1-3.3c0-2.8-1.2-4.3-3.6-4.3H135.1z"/>
	<path class="st0" d="M152.5,91.7c-0.5-0.2-0.9-0.3-1.3-0.3c-2.1,0-3.1,1.8-3.1,5.4v7.4h-2.1V89.6h2.1v2.6h0.1
		c0.5-1.9,1.6-2.8,3.2-2.8c0.5,0,0.9,0.1,1.2,0.2V91.7z"/>
	<path class="st0" d="M158.4,104.4c-1.7,0-3.1-0.7-4-2c-0.9-1.3-1.4-3.1-1.4-5.4c0-2.4,0.5-4.3,1.5-5.6c1-1.3,2.3-2,4.1-2
		c1.7,0,3,0.7,4,2c1,1.3,1.4,3.1,1.4,5.4c0,2.4-0.5,4.3-1.4,5.7C161.6,103.7,160.2,104.4,158.4,104.4 M158.5,91.2
		c-1.1,0-1.9,0.5-2.5,1.5c-0.6,1-0.9,2.4-0.9,4.2c0,3.8,1.1,5.7,3.4,5.7c2.2,0,3.3-1.9,3.3-5.8c0-1.8-0.3-3.2-0.9-4.2
		C160.3,91.7,159.5,91.2,158.5,91.2"/>
	<path class="st0" d="M172.3,84.4c-0.3-0.1-0.7-0.2-1.2-0.2c-1.3,0-2,0.8-2,2.5v2.9h2.9v1.7h-2.9v12.8h-2.1V91.4H165v-1.7h2.1v-2.9
		c0-1.3,0.3-2.4,1-3.1c0.7-0.8,1.7-1.1,2.9-1.1c0.3,0,0.8,0,1.3,0.1V84.4z"/>
	<path class="st0" d="M175,97.4c0,3.5,1.3,5.3,3.8,5.3c1.1,0,2.2-0.4,3.4-1.2v1.9c-1.1,0.7-2.3,1-3.6,1c-1.8,0-3.2-0.6-4.2-1.9
		c-1-1.3-1.4-3.2-1.4-5.7c0-2.2,0.5-4,1.5-5.4c1-1.4,2.3-2.1,4-2.1c3.1,0,4.7,2.2,4.7,6.6v1.4H175z M181,95.7c0-3.1-0.9-4.6-2.7-4.6
		c-0.9,0-1.7,0.4-2.2,1.2c-0.6,0.8-0.9,1.9-1,3.5H181z"/>
	<path class="st0" d="M185.1,103.6v-2.1c1.1,0.7,2.1,1.1,3.2,1.1c1.7,0,2.6-0.8,2.6-2.3c0-0.5-0.2-0.9-0.5-1.3
		c-0.3-0.4-1-0.9-1.9-1.4c-1.4-0.8-2.3-1.5-2.7-2.2c-0.4-0.7-0.6-1.4-0.6-2.1c0-1.2,0.4-2.1,1.3-2.9c0.8-0.8,1.9-1.1,3.3-1.1
		c1.1,0,2,0.2,2.8,0.6v2c-1-0.5-1.9-0.8-2.8-0.8c-0.8,0-1.4,0.2-1.8,0.6c-0.4,0.4-0.7,0.9-0.7,1.6c0,0.5,0.1,0.9,0.4,1.3
		c0.3,0.4,1,0.9,2,1.5c1.4,0.8,2.3,1.5,2.7,2.1c0.4,0.6,0.6,1.4,0.6,2.1c0,1.2-0.4,2.1-1.2,2.9c-0.8,0.8-2,1.1-3.4,1.1
		C187.1,104.4,186.1,104.1,185.1,103.6"/>
	<path class="st0" d="M195.2,103.6v-2.1c1.1,0.7,2.1,1.1,3.2,1.1c1.7,0,2.6-0.8,2.6-2.3c0-0.5-0.2-0.9-0.5-1.3
		c-0.3-0.4-1-0.9-1.9-1.4c-1.4-0.8-2.3-1.5-2.7-2.2c-0.4-0.7-0.6-1.4-0.6-2.1c0-1.2,0.4-2.1,1.3-2.9c0.8-0.8,1.9-1.1,3.3-1.1
		c1.1,0,2,0.2,2.8,0.6v2c-1-0.5-1.9-0.8-2.8-0.8c-0.8,0-1.4,0.2-1.8,0.6c-0.4,0.4-0.7,0.9-0.7,1.6c0,0.5,0.1,0.9,0.4,1.3
		c0.3,0.4,1,0.9,2,1.5c1.4,0.8,2.3,1.5,2.7,2.1c0.4,0.6,0.6,1.4,0.6,2.1c0,1.2-0.4,2.1-1.2,2.9c-0.8,0.8-2,1.1-3.4,1.1
		C197.2,104.4,196.1,104.1,195.2,103.6"/>
	<path class="st0" d="M206.9,86.5c-0.4,0-0.8-0.1-1-0.4c-0.3-0.3-0.4-0.6-0.4-1c0-0.4,0.1-0.8,0.4-1c0.3-0.3,0.6-0.4,1-0.4
		c0.4,0,0.7,0.1,1,0.4c0.3,0.3,0.4,0.6,0.4,1c0,0.4-0.1,0.8-0.4,1C207.7,86.4,207.3,86.5,206.9,86.5 M205.9,89.6h2.1v14.5h-2.1V89.6
		z"/>
	<path class="st0" d="M216.3,104.4c-1.7,0-3.1-0.7-4-2c-0.9-1.3-1.4-3.1-1.4-5.4c0-2.4,0.5-4.3,1.5-5.6c1-1.3,2.3-2,4.1-2
		c1.7,0,3,0.7,4,2c1,1.3,1.4,3.1,1.4,5.4c0,2.4-0.5,4.3-1.4,5.7C219.4,103.7,218,104.4,216.3,104.4 M216.3,91.2
		c-1.1,0-1.9,0.5-2.5,1.5c-0.6,1-0.9,2.4-0.9,4.2c0,3.8,1.1,5.7,3.4,5.7c2.2,0,3.3-1.9,3.3-5.8c0-1.8-0.3-3.2-0.9-4.2
		C218.2,91.7,217.4,91.2,216.3,91.2"/>
	<path class="st0" d="M232.4,104.1v-9.6c0-2.2-0.9-3.3-2.6-3.3c-0.9,0-1.6,0.3-2.2,1c-0.6,0.6-0.8,1.5-0.8,2.7v9.3h-2.1V89.6h2.1
		v2.2h0.1c0.7-1.6,2-2.4,3.7-2.4c2.6,0,3.9,1.5,3.9,4.6v10.1H232.4z"/>
	<path class="st0" d="M244.5,104.1V102h-0.1c-0.7,1.6-2,2.4-3.7,2.4c-1.1,0-1.9-0.4-2.6-1.1c-0.7-0.8-1-1.7-1-2.9
		c0-2.5,1.3-4.1,3.9-4.6l3.4-0.8v-1c0-1.9-0.8-2.8-2.5-2.8c-1.2,0-2.4,0.5-3.7,1.5v-2.1c1.3-0.8,2.7-1.2,4-1.2
		c2.8,0,4.3,1.6,4.3,4.7v10H244.5z M244.5,96.5l-2.8,0.6c-1.6,0.4-2.4,1.3-2.4,2.9c0,0.8,0.2,1.4,0.6,1.9c0.4,0.5,1,0.7,1.6,0.7
		c0.9,0,1.7-0.4,2.2-1.1c0.5-0.7,0.8-1.7,0.8-2.9V96.5z"/>
	<rect x="250.1" y="82.7" class="st0" width="2.1" height="21.5"/>
</g>
</svg>
