<svg xmlns="http://www.w3.org/2000/svg" width="198.25" height="121.5" viewBox="0 0 198.25 121.5"><title>ssasmaestro</title><path d="M17.61,65.89V56.64a15.77,15.77,0,0,0,5.78,3.47,21.69,21.69,0,0,0,7.06,1.28c5.27,0,8-2.18,8-6.16a7.46,7.46,0,0,0-2.18-4.89c-.9-1.28-3.47-3.08-7.07-5.26a41.22,41.22,0,0,1-8.87-6.17,13.76,13.76,0,0,1-2.69-8.22,13.29,13.29,0,0,1,4.88-10.15c3.08-2.7,7.06-4,12.33-4,4.37,0,8,.39,11,1.8v8.87a18.22,18.22,0,0,0-11-3.47c-2.7,0-4.37.38-6.16,1.8a6.44,6.44,0,0,0-2.19,4.88,6.34,6.34,0,0,0,1.29,4.37c1.28,1.28,3.47,2.7,7.45,4.88A39.6,39.6,0,0,1,45,46.75a12.5,12.5,0,0,1,3.09,8,12,12,0,0,1-4.89,10.15c-3.08,2.7-7.45,4-13.23,4a28.38,28.38,0,0,1-6.55-.9A40.82,40.82,0,0,1,17.61,65.89Z"/><path d="M58.21,65.89V56.64A15.69,15.69,0,0,0,64,60.11a21.69,21.69,0,0,0,7.06,1.28c5.27,0,8-2.18,8-6.16a7.46,7.46,0,0,0-2.18-4.89c-1.29-1.41-4-3.08-8-5.26-3.47-2.19-6.17-4-8-6.17-1.79-2.7-3.08-5.27-3.08-8.35A13.3,13.3,0,0,1,62.7,20.41c3-2.57,7.33-3.86,12.21-3.86,4.37,0,8,.39,11,1.8v8.87a18.26,18.26,0,0,0-11-3.47c-2.7,0-4.37.38-6.17,1.8a6.25,6.25,0,0,0-2.18,4.37c0,1.67.38,3.46,1.28,4.36.9,1.29,3.47,3.09,7.45,4.89a39.94,39.94,0,0,1,9.77,7.06,12.52,12.52,0,0,1,3.08,8.35,12,12,0,0,1-4.88,10.15c-3.08,2.7-7.45,4-13.23,4a29,29,0,0,1-6.56-.9A23.7,23.7,0,0,1,58.21,65.89Z"/><path d="M133.11,67.69l-4.37-12.85h-20.3l-4.37,12.85H94.82l18.89-50.24H123l19,50.24ZM119,28.5c-.39-.9-.39-2.18-.9-3.47h0a6.94,6.94,0,0,1-.9,3.47l-7.07,19.4h15.42Z"/><path d="M149.94,65.89V56.64a15.77,15.77,0,0,0,5.78,3.47,21.7,21.7,0,0,0,7.07,1.28c5.27,0,8-2.18,8-6.16a7.46,7.46,0,0,0-2.18-4.89c-.9-1.28-3.47-3.08-7.45-5.26s-6.56-4-8.35-6.17a14.37,14.37,0,0,1-2.7-8.35A13.3,13.3,0,0,1,155,20.41c3.08-2.7,7.07-4,12.33-4,4.37,0,8,.39,11.05,1.8v8.87a18.22,18.22,0,0,0-11.05-3.47c-2.69,0-4.36.39-6.16,1.8a6.24,6.24,0,0,0-2.19,4.37c0,1.67.39,3.47,1.29,4.36.9,1.29,3.47,3.09,7.45,4.89a39.86,39.86,0,0,1,9.76,7.06,12.55,12.55,0,0,1,3.09,8,12,12,0,0,1-4.88,10.15c-3.09,2.7-7.46,4-13.24,4a28.38,28.38,0,0,1-6.55-.9A44.88,44.88,0,0,1,149.94,65.89Z"/><path d="M43.17,103.92V80.41h0c-.38,1.28-.38,2.7-.9,3.08l-8.35,20.43H31.23l-8.36-20.3a28.36,28.36,0,0,0-.9-3.08h0V104.3H17.61V76.55h6.55l7.07,17.6a28.18,28.18,0,0,1,1.28,4h0c.39-1.29.9-2.7,1.28-4l7.07-17.6h6.3V104.3h-4Z"/><path d="M70.54,103.92l-2.7-7.07H56.79l-2.18,7.07H49.34L60,76h5.27l10.54,27.88ZM63.09,82.21A17.94,17.94,0,0,1,62.7,80h0a4.47,4.47,0,0,1-.38,2.19l-4,10.53h8.36Z"/><path d="M77.61,103.92V76h15v4H82.1v8h9.77v4H82.1v8H93.15v4Z"/><path d="M94.82,103V98.14a8.22,8.22,0,0,0,3.09,1.8,15,15,0,0,0,4,.9c3.08,0,4.37-1.29,4.37-3.47a5.66,5.66,0,0,0-.9-2.7c-.52-.9-2.19-1.8-4.37-3.09a15.73,15.73,0,0,1-4.88-3.46,7.31,7.31,0,0,1-1.29-4.37A7.86,7.86,0,0,1,97.52,78a11.1,11.1,0,0,1,6.55-2.19,23.18,23.18,0,0,1,6.17.9v4.88a9.55,9.55,0,0,0-6.17-1.8,4.64,4.64,0,0,0-3.08.9c-.9.39-1.29,1.29-1.29,2.7a5.66,5.66,0,0,0,.9,2.7c.39.9,1.8,1.8,4,2.7a16.93,16.93,0,0,1,5.26,4,7.8,7.8,0,0,1,1.8,4.37,7.3,7.3,0,0,1-2.7,5.78c-1.79,1.41-4,2.19-7.45,2.19a10.59,10.59,0,0,1-3.47-.39A8.57,8.57,0,0,0,94.82,103Z"/><path d="M124.37,80v23.9H120V80h-8V76h20.3v4Z"/><path d="M148.53,103.92l-3.47-8c-.9-2.18-2.19-3.08-4-3.08h-2.18v11h-4.37V76h8.87c3.08,0,5.26.38,6.55,2.18,1.8,1.29,2.18,3.09,2.18,5.27a6.45,6.45,0,0,1-1.79,4.88,8.42,8.42,0,0,1-4.37,2.7h0c1.28.39,2.18,1.8,3.08,3.47l4.37,8.87h-4.88ZM139.28,80v8.87h3.46a4.64,4.64,0,0,0,3.47-1.29,4.85,4.85,0,0,0,1.29-3.47,4,4,0,0,0-1.29-3.08c-.9-.9-2.18-.9-3.47-.9A29.65,29.65,0,0,0,139.28,80Z"/><path d="M167.54,104.3c-4,0-7.07-1.28-9.25-4a15.17,15.17,0,0,1-3.47-10.15,16,16,0,0,1,3.47-10.53,12.9,12.9,0,0,1,9.64-4c4,0,7.06,1.29,9.25,4a17.14,17.14,0,0,1,0,20.68C175,103,171.52,104.3,167.54,104.3ZM167.93,80c-2.7,0-4.89.9-6.17,2.7-1.8,1.8-2.18,4.37-2.18,7.45a12.47,12.47,0,0,0,2.18,7.45,7,7,0,0,0,5.78,2.7c2.7,0,4.88-.9,6.17-2.7a12.84,12.84,0,0,0,2.18-7.45,11.72,11.72,0,0,0-2.18-7.45A6.5,6.5,0,0,0,167.93,80Z"/><rect x="77.61" width="7.77" height="16.42" style="fill:none"/></svg>